<svg xmlns="http://www.w3.org/2000/svg" viewBox="344.5639097744361 330.27819548872174 111.73684210526318 91.21804511278197" width="53.87" height="43.61">
  <g transform="translate(370, 335)">
    <!-- 귀 -->
    <circle cx="8" cy="10" r="6" fill="#a5b4fc"/>
    <circle cx="32" cy="10" r="6" fill="#a5b4fc"/>

    <!-- 얼굴 -->
    <ellipse cx="20" cy="25" rx="16" ry="18" fill="#cbd5e1"/>

    <!-- 눈 -->
    <circle cx="14" cy="22" r="2.5" fill="#000"/>
    <circle cx="26" cy="22" r="2.5" fill="#000"/>
    <!-- 반짝임 -->
    <circle cx="13.5" cy="21.5" r="0.6" fill="white"/>
    <circle cx="25.5" cy="21.5" r="0.6" fill="white"/>

    <!-- 코 -->
    <circle cx="20" cy="28" r="2" fill="black"/>

    <!-- 입 (W 모양으로 변경) -->
    <path d="M14 34 Q17 38 20 34 Q23 38 26 34" stroke="black" stroke-width="1" fill="none"/>

    <!-- 수염 (좌우 대칭) -->
    <!-- 왼쪽 -->
    <line x1="6" y1="28" x2="12" y2="29" stroke="#555" stroke-width="1"/>
    <line x1="6" y1="30" x2="12" y2="30" stroke="#555" stroke-width="1"/>
    <line x1="6" y1="32" x2="12" y2="31" stroke="#555" stroke-width="1"/>
    <!-- 오른쪽 -->
    <line x1="28" y1="29" x2="34" y2="28" stroke="#555" stroke-width="1"/>
    <line x1="28" y1="30" x2="34" y2="30" stroke="#555" stroke-width="1"/>
    <line x1="28" y1="31" x2="34" y2="32" stroke="#555" stroke-width="1"/>
  </g>
</svg>
